<svg role="img" aria-labelledby="title desc" xmlns="http://www.w3.org/2000/svg" width="900" height="570">
<style>text{font-family:'Microsoft YaHei';font-weight:normal;font-style:normal;}</style>
<text transform="translate(407,406)" font-size="92" style="fill:#c9a98f">喜欢</text>
<text transform="translate(245,217)" font-size="87" style="fill:#87545a">爱你</text>
<text transform="translate(683,464) rotate(-90)" font-size="79" style="fill:#c9a98f">感觉</text>
<text transform="translate(169,301)" font-size="75" style="fill:#4d4741">晚安</text>
<text transform="translate(249,554)" font-size="67" style="fill:#c9a98f">宝贝</text>
<text transform="translate(95,137)" font-size="61" style="fill:#87545a">今天</text>
<text transform="translate(834,176) rotate(-90)" font-size="60" style="fill:#87545a">一起</text>
<text transform="translate(579,148)" font-size="56" style="fill:#782e3d">我爱你</text>
<text transform="translate(861,316) rotate(-90)" font-size="55" style="fill:#4d4741">明天</text>
<text transform="translate(661,205)" font-size="51" style="fill:#c9a98f">晚上</text>
<text transform="translate(491,555)" font-size="51" style="fill:#87545a">是不是</text>
<text transform="translate(76,549)" font-size="51" style="fill:#9f5b60">应该</text>
<text transform="translate(50,515) rotate(-90)" font-size="51" style="fill:#4d4741">一点</text>
<text transform="translate(659,283)" font-size="50" style="fill:#c9a98f">有点</text>
<text transform="translate(93,351)" font-size="49" style="fill:#9f5b60">的话</text>
<text transform="translate(520,198) rotate(-90)" font-size="48" style="fill:#c9a98f">不想</text>
<text transform="translate(126,447)" font-size="48" style="fill:#782e3d">事情</text>
<text transform="translate(225,361)" font-size="48" style="fill:#4d4741">以后</text>
<text transform="translate(575,94)" font-size="47" style="fill:#c9a98f">不能</text>
<text transform="translate(271,476) rotate(-90)" font-size="46" style="fill:#4d4741">一样</text>
<text transform="translate(750,360)" font-size="46" style="fill:#9f5b60">不会</text>
<text transform="translate(486,289)" font-size="46" style="fill:#9f5b60">下午</text>
<text transform="translate(696,410)" font-size="44" style="fill:#b98972">回家</text>
<text transform="translate(280,489)" font-size="43" style="fill:#782e3d">不要</text>
<text transform="translate(733,555)" font-size="42" style="fill:#c9a98f">其实</text>
<text transform="translate(258,80)" font-size="42" style="fill:#782e3d">之前</text>
<text transform="translate(57,397)" font-size="42" style="fill:#782e3d">好像</text>
<text transform="translate(394,480)" font-size="42" style="fill:#c9a98f">很多</text>
<text transform="translate(11,57)" font-size="41" style="fill:#c9a98f">好吃</text>
<text transform="translate(94,248) rotate(-90)" font-size="41" style="fill:#9f5b60">想你</text>
<text transform="translate(692,502)" font-size="39" style="fill:#c9a98f">吃饭</text>
<text transform="translate(362,453) rotate(-90)" font-size="39" style="fill:#c9a98f">今晚</text>
<text transform="translate(535,496)" font-size="39" style="fill:#87545a">中午</text>
<text transform="translate(688,45)" font-size="39" style="fill:#c9a98f">而且</text>
<text transform="translate(134,215)" font-size="38" style="fill:#87545a">上班</text>
<text transform="translate(8,315)" font-size="38" style="fill:#87545a">看到</text>
<text transform="translate(268,130)" font-size="38" style="fill:#b98972">时间</text>
<text transform="translate(398,548)" font-size="38" style="fill:#87545a">回来</text>
<text transform="translate(322,349)" font-size="38" style="fill:#9f5b60">东西</text>
<text transform="translate(796,475)" font-size="38" style="fill:#b98972">不好</text>
<text transform="translate(504,33)" font-size="38" style="fill:#4d4741">开始</text>
<text transform="translate(408,128) rotate(-90)" font-size="38" style="fill:#b98972">这种</text>
<text transform="translate(819,437)" font-size="38" style="fill:#c9a98f">出门</text>
<text transform="translate(570,240) rotate(-90)" font-size="38" style="fill:#c9a98f">为什么</text>
<text transform="translate(3,95)" font-size="38" style="fill:#87545a">不用</text>
<text transform="translate(2,144)" font-size="38" style="fill:#9f5b60">只是</text>
<text transform="translate(520,454)" font-size="38" style="fill:#b98972">亲亲</text>
<text transform="translate(701,462)" font-size="38" style="fill:#782e3d">下班</text>
<text transform="translate(699,86)" font-size="38" style="fill:#c9a98f">问题</text>
<text transform="translate(337,311)" font-size="38" style="fill:#9f5b60">出来</text>
<text transform="translate(360,40)" font-size="38" style="fill:#87545a">一些</text>
<text transform="translate(114,35)" font-size="38" style="fill:#782e3d">没事</text>
<text transform="translate(618,282) rotate(-90)" font-size="38" style="fill:#87545a">直接</text>
<text transform="translate(164,74)" font-size="38" style="fill:#87545a">比较</text>
<text transform="translate(147,491)" font-size="37" style="fill:#b98972">起来</text>
<text transform="translate(494,78) rotate(-90)" font-size="37" style="fill:#b98972">确实</text>
<text transform="translate(54,499)" font-size="37" style="fill:#c9a98f">宝宝</text>
<text transform="translate(883,567) rotate(-90)" font-size="37" style="fill:#87545a">早上</text>
<text transform="translate(92,295)" font-size="37" style="fill:#782e3d">那种</text>
<text transform="translate(826,196)" font-size="36" style="fill:#b98972">一直</text>
<text transform="translate(418,304)" font-size="36" style="fill:#c9a98f">以前</text>
<text transform="translate(324,262)" font-size="36" style="fill:#c9a98f">家里</text>
<text transform="translate(138,175)" font-size="36" style="fill:#c9a98f">要是</text>
<text transform="translate(445,148) rotate(-90)" font-size="36" style="fill:#87545a">希望</text>
<text transform="translate(645,546)" font-size="36" style="fill:#782e3d">两个</text>
<text transform="translate(824,148)" font-size="35" style="fill:#4d4741">还好</text>
<text transform="translate(819,41)" font-size="35" style="fill:#4d4741">需要</text>
<text transform="translate(271,35)" font-size="35" style="fill:#782e3d">特别</text>
<text transform="translate(223,567) rotate(-90)" font-size="35" style="fill:#87545a">最近</text>
<text transform="translate(2,561)" font-size="35" style="fill:#4d4741">虽然</text>
<text transform="translate(775,513)" font-size="35" style="fill:#c9a98f">下次</text>
<text transform="translate(430,227)" font-size="35" style="fill:#9f5b60">有没有</text>
<text transform="translate(100,251)" font-size="35" style="fill:#9f5b60">地方</text>
<text transform="translate(584,185)" font-size="35" style="fill:#4d4741">本来</text>
<text transform="translate(409,265)" font-size="34" style="fill:#b98972">真是</text>
<text transform="translate(742,319)" font-size="34" style="fill:#9f5b60">或者</text>
<text transform="translate(10,278)" font-size="34" style="fill:#782e3d">外面</text>
<text transform="translate(95,70)" font-size="34" style="fill:#9f5b60">一天</text>
<text transform="translate(316,441) rotate(-90)" font-size="34" style="fill:#9f5b60">开心</text>
<text transform="translate(160,396)" font-size="34" style="fill:#c9a98f">我来</text>
</svg>